<svg width="186" height="57" viewBox="0 0 186 57" fill="none" xmlns="http://www.w3.org/2000/svg">
<path fill-rule="evenodd" clip-rule="evenodd" d="M12.2521 0.0401737C7.86004 0.451899 4.72936 1.92893 2.80211 4.4987C1.98508 5.58814 1.24231 7.28754 0.998074 8.62629C0.910375 9.10728 0.91545 9.21568 1.03672 9.4505C1.11351 9.5992 1.29939 9.785 1.44976 9.86324C1.81637 10.0541 7.28065 10.6592 7.62113 10.5465C7.97565 10.4293 8.25379 10.0329 8.45346 9.3604C8.71926 8.46539 8.99784 7.97254 9.55075 7.41889C11.0536 5.91408 13.9088 5.66393 15.5744 6.89106C16.3276 7.44598 16.7492 8.33295 16.9009 9.68143C16.9776 10.3642 17.0251 12.5183 16.9634 12.5183C16.7708 12.5183 12.1133 13.0564 11.4378 13.1568C7.43305 13.7515 4.94045 14.7603 3.03087 16.5591C2.13046 17.4073 1.5953 18.1324 1.04467 19.2505C0.262996 20.8378 -0.0762122 22.5664 0.0142771 24.5008C0.150772 27.4159 1.14615 29.6302 2.98689 31.1136C4.50762 32.339 6.40113 32.9267 8.82878 32.9267C12.4399 32.9267 14.7933 31.9567 17.4294 29.3818C17.7885 29.031 18.0973 28.761 18.1157 28.7818C18.134 28.8026 18.3989 29.1817 18.7043 29.6241C19.4357 30.6838 20.0155 31.3549 20.8184 32.0711C21.9135 33.0478 22.1689 33.0071 23.7678 31.6C24.3414 31.0953 25.2293 30.3235 25.7409 29.8849C27.3964 28.4658 27.4746 28.3773 27.4746 27.921C27.4746 27.5008 27.5068 27.5601 26.443 26.0251C25.8331 25.1451 25.4764 24.4252 25.253 23.6239C25.0773 22.993 25.0713 22.7859 25.0181 15.4822C24.9662 8.34675 24.9552 7.94925 24.7894 7.1833C24.375 5.26897 23.8037 4.16522 22.6188 2.99025C21.0097 1.39458 18.5343 0.383645 15.4779 0.0740466C14.6704 -0.00775658 12.9554 -0.0257939 12.2521 0.0401737ZM87.3075 0.0745547C81.8365 0.633882 78.1995 3.17469 76.8159 7.40398C76.4442 8.54042 76.3616 9.20992 76.5566 9.50783C76.8408 9.94217 76.9875 9.97807 79.7128 10.2789C83.101 10.6528 83.1507 10.6528 83.5036 10.2781C83.6831 10.0877 83.8158 9.82928 83.8843 9.53713C84.2467 7.99244 85.2945 6.84957 86.7819 6.37662C88.5778 5.80552 90.4113 6.1578 91.4414 7.27188C92.2096 8.10278 92.4226 8.94063 92.4234 11.1347L92.4239 12.5034L92.1068 12.5515C91.9324 12.578 91.0475 12.6772 90.1405 12.7722C86.9382 13.1074 85.0878 13.4151 83.4614 13.8826C79.0379 15.1544 76.3195 17.9759 75.6441 21.9964C75.4922 22.9009 75.4688 24.7824 75.5983 25.6864C76.1821 29.7624 78.7325 32.3103 82.7698 32.8513C83.6945 32.9752 85.9535 32.9023 86.9269 32.7171C89.1024 32.3033 90.8371 31.3516 92.8595 29.4625L93.5911 28.779L94.2876 29.7732C95.0637 30.8812 96.5653 32.4402 97.0529 32.6442C97.4391 32.8057 97.8665 32.7315 98.2592 32.4347C98.422 32.3118 99.0119 31.8092 99.57 31.3179C100.128 30.8266 101.106 29.9773 101.744 29.4305C103.315 28.0828 103.33 27.9855 102.184 26.4014C101.832 25.915 101.396 25.2122 101.214 24.8396C100.563 23.5084 100.6 23.9985 100.54 15.7786C100.495 9.58091 100.465 8.28341 100.351 7.60637C100.193 6.67334 99.8538 5.54554 99.5485 4.93922C98.0164 1.8976 94.4142 0.120368 89.5908 0.0263704C88.7536 0.0101114 87.7261 0.0317901 87.3075 0.0745547ZM45.8694 0.328856C43.0469 0.643959 41.0065 2.17044 39.6621 4.97275L39.272 5.78604L39.2297 3.64925L39.1874 1.51246L38.9111 1.2358L38.6347 0.959147L35.5706 0.937552C32.2115 0.913926 32.237 0.910623 31.8952 1.41855L31.7017 1.70604L31.7235 16.8067L31.7453 31.9073L32.0217 32.1842L32.2981 32.461L35.5313 32.4872C39.0893 32.5162 39.1228 32.512 39.4259 31.9982C39.5565 31.7769 39.568 31.0543 39.5683 23.0905C39.5685 18.1911 39.6058 13.8398 39.6542 13.0807C39.8004 10.7853 40.2184 9.43983 41.0521 8.58081C42.2811 7.31464 44.825 7.29923 45.9546 8.55109C46.5441 9.2045 46.9533 10.3593 47.0633 11.6802C47.0939 12.048 47.123 16.7218 47.128 22.0663C47.1366 31.4626 47.1423 31.7914 47.2975 32.0207C47.6216 32.4994 47.6523 32.5033 51.0864 32.503C54.1011 32.5027 54.2532 32.4951 54.5207 32.3318C55.0713 31.9957 55.0442 32.5148 55.0442 22.2985C55.0442 13.035 55.0702 12.0481 55.3453 10.8404C55.6874 9.33906 56.7435 8.19136 58.1285 7.81596C58.7983 7.6344 59.9367 7.68225 60.5753 7.91885C61.1042 8.11472 61.7622 8.70377 62.0189 9.21119C62.5458 10.2522 62.5152 9.58015 62.5665 21.2683L62.6132 31.9237L62.929 32.2135L63.245 32.5033H66.4957H69.7464L70.0138 32.278C70.1609 32.154 70.3139 31.9666 70.3538 31.8615C70.3937 31.7564 70.4321 26.3418 70.4391 19.8291C70.4505 9.22135 70.4372 7.89074 70.3124 7.05628C70.1491 5.96464 69.7337 4.67704 69.3279 4.00466C67.8055 1.48172 64.7063 0.0229832 61.5027 0.321489C58.4928 0.601956 56.0855 2.22566 54.7951 4.84581L54.3823 5.68391L54.0688 5.05752C52.7555 2.43338 51.0064 0.91418 48.7807 0.464348C47.9394 0.294306 46.6968 0.236467 45.8694 0.328856ZM143.63 0.329025C142.629 0.416417 141.093 0.788935 140.203 1.15959C135.746 3.01752 132.844 7.54218 132.13 13.7439C131.955 15.2633 131.954 18.1094 132.128 19.5775C132.437 22.1877 133.049 24.2964 134.087 26.3215C135.994 30.0434 138.974 32.3215 142.785 32.9698C143.912 33.1615 145.888 33.1613 147.014 32.9694C149.551 32.5367 151.549 31.486 153.447 29.5872C156.469 26.5637 158.05 22.21 158.05 16.9101C158.05 14.6137 157.859 12.9442 157.373 10.994C155.903 5.0969 152.137 1.23394 147.099 0.453847C146.05 0.291511 144.64 0.240786 143.63 0.329025ZM176.782 0.324961C175.281 0.46096 173.848 1.03087 172.812 1.90429C171.839 2.72427 170.674 4.45094 170.051 5.99775C169.943 6.26661 169.928 6.07642 169.89 3.95021C169.85 1.73856 169.837 1.59282 169.67 1.3674C169.34 0.92341 169.308 0.919346 166.126 0.91833C163.305 0.917483 163.153 0.925443 162.886 1.08837C162.326 1.43023 162.362 0.346725 162.368 16.6862C162.371 27.9555 162.397 31.6001 162.473 31.8229C162.531 31.9906 162.697 32.1993 162.862 32.3098C163.148 32.5028 163.157 32.5033 166.329 32.503C169.329 32.5027 169.524 32.4933 169.778 32.3382C169.927 32.2477 170.098 32.0858 170.159 31.9786C170.248 31.8221 170.279 29.909 170.317 22.2991C170.364 12.8849 170.366 12.8085 170.553 11.9838C170.942 10.2654 171.397 9.3206 172.203 8.55685C173.042 7.76261 174.065 7.42786 175.128 7.59943C176.582 7.83391 177.477 8.79455 177.871 10.5428C178.132 11.7036 178.176 13.4523 178.177 22.6671C178.177 31.6655 178.181 31.8466 178.344 32.0769C178.646 32.5009 178.743 32.5111 182.217 32.4851L185.447 32.461L185.724 32.1841L186 31.9072V20.6673C186 8.60732 185.996 8.4825 185.563 6.50584C185.194 4.81787 184.586 3.61563 183.559 2.54118C182.368 1.29432 180.767 0.546659 178.826 0.329872C177.951 0.232233 177.809 0.231895 176.782 0.324961ZM108.049 0.964143C107.584 1.21785 107.562 1.35995 107.562 4.04709V6.5083L107.851 6.82467L108.141 7.14096L113.311 7.1833L118.481 7.22564L112.758 15.4398C109.611 19.9576 106.96 23.8255 106.868 24.0351C106.519 24.831 106.465 25.3832 106.464 28.2099C106.462 31.1303 106.472 31.1977 106.937 31.5644C107.253 31.8133 107.563 31.7855 108.233 31.4474C111.141 29.9812 114.303 29.2566 117.795 29.2566C121.121 29.2566 123.963 29.869 126.947 31.2287C127.566 31.5106 128.14 31.7412 128.223 31.7412C128.532 31.7412 128.888 31.4738 129.047 31.1216C129.192 30.8014 129.208 30.5429 129.21 28.4328C129.212 25.2063 129.138 25.0003 127.693 24.253C125.226 22.9772 122.453 22.3282 118.915 22.1988C118.113 22.1695 117.456 22.1342 117.456 22.1206C117.456 22.107 119.825 18.712 122.721 14.5761C125.616 10.4402 128.13 6.77251 128.306 6.42565L128.627 5.79502L128.602 3.61148L128.577 1.42786L128.301 1.15121L128.024 0.874464L118.153 0.856088C109.537 0.840083 108.251 0.853802 108.049 0.964143ZM146.572 6.58578C147.275 6.85659 147.991 7.54735 148.364 8.31423C149.245 10.1246 149.664 13.491 149.563 17.938C149.461 22.4735 148.88 24.6927 147.44 26.0568C146.867 26.5991 146.25 26.8927 145.482 26.9889C143.194 27.2752 141.656 25.7792 140.965 22.5955C140.587 20.8516 140.506 19.7469 140.504 16.329C140.501 12.8391 140.565 11.9502 140.926 10.4282C141.188 9.32085 141.468 8.6334 141.939 7.93968C142.463 7.16772 143.031 6.73296 143.884 6.44978C144.419 6.27254 145.962 6.35053 146.572 6.58578ZM16.9602 19.1447C16.8833 21.9354 16.7296 22.7842 16.0553 24.1411C15.0919 26.0797 13.6229 27.1087 11.8359 27.097C10.7899 27.0902 10.0433 26.7633 9.39878 26.0301C8.7158 25.2532 8.42065 24.2982 8.42877 22.8919C8.43849 21.2034 8.83064 20.1736 9.8536 19.15C10.3358 18.6676 10.6255 18.4627 11.2513 18.1612C12.5503 17.5354 14.1668 17.21 16.092 17.1869L17.0143 17.1758L16.9602 19.1447ZM92.3996 19.3987C92.3518 21.8176 92.2763 22.3569 91.8196 23.5447C91.0901 25.4419 89.502 26.8823 87.9378 27.0652C85.5696 27.3422 84.0533 25.9148 83.9081 23.2714C83.7762 20.8718 84.7228 19.1502 86.7161 18.1648C87.9608 17.5495 89.596 17.2178 91.5247 17.1894L92.4437 17.1758L92.3996 19.3987ZM116.315 33.9088C113.92 34.1499 112.681 34.3828 111.121 34.885C110.536 35.0736 109.562 35.4689 108.957 35.7635C107.001 36.7163 106.198 37.418 106.444 37.9587C106.623 38.3526 106.825 38.3675 108.903 38.1401C111.877 37.8149 113.121 37.7334 115.131 37.7323C118.394 37.7305 119.857 38.1694 120.153 39.2396C120.205 39.4237 120.247 39.8837 120.247 40.2618C120.248 42.0419 119.479 44.8342 117.746 49.3453C117.308 50.4859 116.949 51.484 116.949 51.5633C116.949 51.851 117.246 52.0997 117.577 52.0903C117.973 52.0791 118.348 51.8289 119.152 51.0401C121.219 49.0126 122.951 45.9566 123.996 42.4958C124.861 39.633 125.143 36.5185 124.632 35.4861C124.479 35.1774 124.335 35.0333 124.002 34.8546C123.466 34.567 122.255 34.2394 121.09 34.0669C120.247 33.9418 117.041 33.8358 116.315 33.9088ZM26.477 36.0161C26.2476 36.2094 26.206 36.3016 26.206 36.6177C26.206 37.0847 26.4044 37.3164 27.9363 38.6377C38.8984 48.0929 52.4604 53.9945 67.0531 55.6596C69.8262 55.976 71.739 56.0746 75.214 56.0801C78.729 56.0857 80.0659 56.021 82.9521 55.7059C92.9865 54.6105 103.016 51.4389 110.818 46.8938C112.302 46.0295 114.997 44.2411 115.544 43.7575C116.206 43.1731 116.379 42.4636 115.998 41.9022C115.68 41.4354 115.398 41.2795 114.802 41.2415C114.285 41.2085 114.183 41.2392 112.244 42.0139C103.029 45.697 93.5154 47.9192 83.5441 48.7181C72.529 49.6006 60.3904 48.3269 49.1666 45.1108C41.9807 43.0518 34.5726 39.948 28.4188 36.4181C27.2551 35.7506 26.8834 35.6737 26.477 36.0161Z" fill="white"/>
</svg>
