<svg width="102" height="102" viewBox="0 0 102 102" fill="none" xmlns="http://www.w3.org/2000/svg">
<path fill-rule="evenodd" clip-rule="evenodd" d="M28.5823 9.53478L38.1614 19.0696H50.9188H63.676L63.6853 31.7641L63.6947 44.4587L73.258 54.1043L82.8211 63.75L82.8298 31.875L82.8382 0H50.9206H19.0031L28.5823 9.53478ZM28.4709 24.1733L19.2239 29.0152L19.1669 46.3273L19.1099 63.6391L36.8809 63.638L54.6519 63.6369L59.1082 54.3223C61.5592 49.199 63.598 44.909 63.6388 44.7884C63.6871 44.6461 59.2675 44.5696 50.9939 44.5696H38.2748V31.9304C38.2748 21.9564 38.216 19.2955 37.9963 19.3113C37.8432 19.3223 33.5567 21.5102 28.4709 24.1733ZM33.6037 70.5685C31.7287 71.5253 31.8131 70.7964 31.8136 86.0312C31.8138 98.3684 31.8452 99.5112 32.2035 100.21C33.3436 102.436 36.4522 102.556 37.7178 100.423C38.1389 99.713 38.1694 99.1637 38.2748 90.4112L38.3862 81.1508L42.0627 84.8274C44.0848 86.8494 46.0099 88.6469 46.3408 88.8216C46.6719 88.9963 47.3838 89.1391 47.9228 89.1391C49.2595 89.1391 49.981 88.5788 53.8762 84.5168C55.6483 82.6686 57.1746 81.1565 57.2677 81.1565C57.3609 81.1565 57.4371 85.3024 57.4371 90.3698C57.4371 100.363 57.4337 100.333 58.6806 101.309C59.9389 102.294 61.723 102.11 62.915 100.872L63.5646 100.197L63.6278 86.5193C63.6626 78.9963 63.6376 72.6244 63.5721 72.3595C63.3792 71.5776 62.3834 70.562 61.5374 70.2842C59.792 69.7108 59.577 69.8605 53.5322 75.8516C50.4654 78.8912 47.8419 81.3783 47.7024 81.3783C47.5629 81.3783 45.1503 79.0309 42.3408 76.1618C36.1609 69.8507 35.6507 69.5239 33.6037 70.5685ZM71.9282 70.5685C70.0532 71.5253 70.1377 70.7964 70.1381 86.0312C70.1383 100.843 70.0951 100.37 71.5463 101.43C72.1488 101.87 72.4924 101.892 79.7905 101.953C88.4189 102.026 89.7634 101.878 92.6224 100.542C97.287 98.3626 100.363 94.6813 101.583 89.8199C102.253 87.1504 102.105 83.5841 101.214 80.9567C99.7296 76.5787 96.3113 72.9981 91.9379 71.2401C89.484 70.2538 87.7647 70.0858 80.0446 70.0773C73.0719 70.0698 72.8832 70.0811 71.9282 70.5685ZM11.0911 70.69C10.6622 70.9253 10.1421 71.4055 9.93559 71.7577C9.72882 72.1098 7.38857 78.1852 4.73482 85.2587C0.387879 96.8452 -0.0802589 98.2247 0.00953638 99.1801C0.208958 101.304 2.5218 102.637 4.36249 101.69C5.38255 101.165 5.82128 100.497 6.7551 98.0444L7.65528 95.6804H12.6508H17.6464L18.5466 98.0484C19.0417 99.3509 19.6872 100.67 19.9809 100.98C21.8955 103 25.3514 101.599 25.3514 98.8025C25.3514 98.3302 23.5018 93.0932 20.668 85.5425C15.1823 70.9246 15.4191 71.4971 14.6243 70.9339C13.6979 70.2776 12.051 70.1638 11.0911 70.69ZM88.529 76.8419C92.1513 77.7748 94.8853 80.8146 95.5673 84.668C96.267 88.6209 93.9071 92.9196 90.0357 94.7443L88.5201 95.4587L82.5597 95.5303L76.5994 95.6017V86.051V76.5H81.9002C85.9541 76.5 87.5134 76.5805 88.529 76.8419ZM13.8625 85.6467C14.463 87.2628 14.9982 88.7096 15.0519 88.862C15.1261 89.073 14.5533 89.1391 12.6508 89.1391C10.7484 89.1391 10.1756 89.073 10.2498 88.862C11.0983 86.453 12.5593 82.7087 12.6508 82.7087C12.7168 82.7087 13.2618 84.0307 13.8625 85.6467Z" fill="white"/>
</svg>
