<svg width="238" height="44" viewBox="0 0 238 44" fill="none" xmlns="http://www.w3.org/2000/svg">
<path fill-rule="evenodd" clip-rule="evenodd" d="M19.6025 0.0497971C11.0067 0.363732 7.27387 1.40228 4.27013 4.31554C1.7842 6.72664 0.726257 9.1213 0.262644 13.3868C-0.0850657 16.5861 -0.0882827 27.258 0.257477 30.3549C0.52272 32.7301 1.04677 34.7744 1.72844 36.0936C2.55147 37.6865 4.37892 39.7346 5.80192 40.6591C9.34648 42.962 14.7759 43.7347 27.4128 43.7347C37.8487 43.7347 42.6665 43.2038 46.1002 41.6757C48.4708 40.6207 50.6398 38.395 51.6758 35.9546C52.5144 33.9793 52.8565 31.9729 53.0914 27.6543L53.1421 26.7223H45.9313H38.7204L38.7198 27.0808C38.7185 27.8717 38.4206 29.3574 38.1491 29.9263C37.4693 31.351 36.5402 31.7838 33.5005 32.0918C31.8606 32.2579 21.6176 32.2563 19.7119 32.0895C16.3316 31.7937 15.2261 31.3362 14.6033 29.9752C14.2164 29.1298 14.0639 28.1565 13.9595 25.8654C13.7705 21.7179 13.9064 16.4058 14.2423 14.8149C14.8331 12.0166 15.9019 11.6074 23.0814 11.4308C25.2703 11.377 28.0369 11.376 30.0999 11.4283C34.2245 11.5331 35.5923 11.7024 36.6804 12.2432C37.6309 12.7155 37.9586 13.3607 38.1597 15.1553L38.2829 16.2546L45.3252 16.2792L52.3675 16.3037V14.7423C52.3675 9.67986 51.2844 6.6299 48.5225 3.91576C46.046 1.4821 43.0796 0.559988 36.3809 0.141473C34.3338 0.0135665 22.3832 -0.051725 19.6025 0.0497971ZM203.461 0.149025C195.899 0.482461 192 1.63429 189.222 4.35559C186.361 7.15835 185.338 9.83549 184.932 15.5854C184.785 17.6779 184.783 26.2852 184.93 28.3474C185.329 33.9537 186.292 36.5843 188.93 39.2819C190.003 40.3782 191.069 41.1538 192.296 41.7301C194.719 42.8682 197.673 43.4615 202.291 43.738C206.623 43.9975 218.416 43.9398 222.031 43.6417C226.591 43.2655 229.767 42.4005 231.974 40.9335C232.792 40.3893 234.271 38.963 234.992 38.022C236.559 35.9762 237.339 33.7199 237.726 30.1159C238.067 26.9315 238.097 17.4728 237.776 14.2949C237.318 9.75882 236.442 7.48548 234.185 4.97438C231.492 1.97776 228.171 0.769915 221.154 0.234869C219.465 0.106103 205.924 0.0404286 203.461 0.149025ZM126.062 0.40283C118.045 0.653863 114.312 1.96571 112.098 5.31059C111.396 6.3715 111.137 6.8882 110.73 8.03849C109.975 10.1715 109.732 11.84 109.812 14.3303C109.893 16.8609 110.258 18.5501 111.104 20.3033C111.661 21.4596 112.209 22.2023 113.159 23.0921C114.876 24.7004 117.092 25.6291 120.109 26.0049C120.729 26.0822 125.58 26.3393 130.887 26.5762C136.195 26.8132 140.966 27.053 141.49 27.1093C144.32 27.4132 145.071 28.0933 145.071 30.3549C145.071 32.2912 144.453 33.1366 142.682 33.6256C141.906 33.84 141.874 33.8409 134.689 33.8425C128.079 33.844 127.406 33.8296 126.647 33.6702C125.524 33.4344 124.778 33.0911 124.312 32.5949C123.811 32.0625 123.628 31.6188 123.546 30.7373L123.479 30.0203L116.567 29.9957L109.655 29.9712L109.715 31.5253C109.834 34.5679 110.408 36.7901 111.485 38.3795C112.368 39.6816 114.597 41.5217 116.055 42.1511C119.065 43.4512 123.264 43.8331 134.543 43.8323C145.94 43.8315 149.564 43.4909 152.333 42.1607C153.428 41.6345 154.245 41.0295 155.539 39.7871C158.156 37.2732 159.029 34.687 158.883 29.8828C158.79 26.7971 158.388 24.8458 157.474 23.0419C156.193 20.5127 153.886 18.8658 150.512 18.073C148.498 17.5999 147.005 17.4571 141.513 17.2122C130.199 16.7078 125.656 16.4777 125.185 16.3854C124.176 16.1876 123.697 15.8345 123.318 15.0107C123.134 14.6089 123.099 14.3684 123.1 13.4824C123.101 12.5932 123.136 12.3532 123.327 11.9283C123.602 11.3153 124.027 10.9341 124.714 10.6836C125.89 10.2551 126.329 10.232 133.276 10.234C140.381 10.236 140.693 10.2553 141.792 10.7619C142.743 11.2002 143.316 12.2169 143.316 13.4648V14.0081H150.252H157.188L157.127 12.6937C156.973 9.35178 156.231 7.19391 154.473 4.97027C152.678 2.70046 150.447 1.49414 146.972 0.914264C144.276 0.464584 141.063 0.336105 133.081 0.359143C129.676 0.368894 126.518 0.388586 126.062 0.40283ZM71.1124 0.935008C71.061 1.00097 66.9257 10.4759 61.9229 21.9903C56.92 33.5048 52.8085 42.9582 52.786 42.9979C52.7636 43.0377 56.0907 43.0592 60.1796 43.0457L67.6138 43.0213L69.0231 39.3169L70.4325 35.6126L81.164 35.6135L91.8955 35.6144L93.2512 39.2408C93.9967 41.2353 94.6356 42.9129 94.6708 42.9688C94.7151 43.0392 96.997 43.0627 102.144 43.0457L109.554 43.0213L100.381 21.9425L91.2083 0.86379L81.207 0.839413C73.2773 0.820103 71.1864 0.839987 71.1124 0.935008ZM164.274 22.0381V42.9735H171.293H178.311V22.0381V1.10278H171.293H164.274V22.0381ZM85.2808 18.3099C86.9606 22.7001 88.3356 26.3243 88.3363 26.3638C88.3369 26.4033 85.1134 26.4355 81.1728 26.4355C76.7778 26.4355 74.008 26.4008 74.008 26.3458C74.008 26.2965 75.3289 22.7798 76.9432 18.5309C78.5576 14.282 79.9222 10.686 79.9757 10.5397L80.073 10.2739L81.1498 10.3008L82.2266 10.3277L85.2808 18.3099ZM218.863 11.807C221.932 12.1423 222.96 12.6967 223.443 14.2773C223.813 15.4879 223.858 16.1581 223.905 21.0637C223.965 27.4542 223.836 28.9863 223.128 30.2881C222.608 31.2455 221.808 31.6451 219.826 31.9376C216.841 32.3782 206.057 32.3719 203.007 31.9279C200.864 31.6157 200.171 31.2512 199.619 30.1448C198.965 28.8331 198.928 28.3897 198.928 21.9425C198.928 16.941 198.949 16.1487 199.098 15.377C199.561 12.9771 200.238 12.3522 202.811 11.9512C203.338 11.8691 204.39 11.7644 205.15 11.7187C207.105 11.6011 217.596 11.6687 218.863 11.807Z" fill="white"/>
</svg>
