<svg width="195" height="54" viewBox="0 0 195 54" fill="none" xmlns="http://www.w3.org/2000/svg">
<path fill-rule="evenodd" clip-rule="evenodd" d="M64.5723 2.51135C61.1233 5.88407 61.1278 5.61746 64.4579 8.92564C65.8205 10.2793 67.1414 11.4675 67.3929 11.5658C68.1725 11.8707 69.0079 11.3228 71.3483 8.97155C73.5072 6.80259 73.9667 6.09575 73.7189 5.32574C73.6537 5.12329 72.4512 3.83694 71.047 2.46701C67.668 -0.828614 67.9902 -0.830772 64.5723 2.51135ZM153.108 13.6473C151.693 13.7687 149.363 14.3296 147.902 14.9001C141.512 17.3957 136.955 22.9399 135.771 29.6595C135.343 32.0825 135.488 36.2951 136.077 38.6029C137.972 46.0203 144.337 51.7454 152.013 52.9368C153.082 53.1026 157.096 53.1493 166.143 53.1006C180.593 53.0233 180.09 53.0771 183.955 51.1979C190.953 47.7953 195 41.2836 195 33.4252C195 25.3844 190.767 18.675 183.627 15.3998C179.722 13.6085 178.679 13.5049 164.954 13.5459C158.877 13.5641 153.546 13.6096 153.108 13.6473ZM2.19771 14.7043C1.18852 15.2095 0.498148 16.0458 0.160822 17.1717C-0.212326 18.4174 0.0577334 19.6074 1.03528 21.0235C1.49818 21.6942 5.9477 28.1524 10.923 35.375C17.3306 44.6775 20.3289 48.8628 21.204 49.726C23.4972 51.9883 26.0095 53.1183 29.1233 53.288C32.8468 53.4908 36.0666 51.991 38.6373 48.8563C39.7812 47.4613 57.9699 21.141 58.5872 19.9869C58.8141 19.5631 58.9574 18.8792 58.9616 18.2006C58.9799 15.287 55.7563 13.3564 53.1019 14.6912C52.1106 15.1897 52.2322 15.0241 43.1526 28.2264C32.6599 43.4837 32.2798 44.0148 31.4469 44.5819C30.3486 45.3296 29.2487 45.4363 28.1322 44.9037C27.6287 44.6633 26.9552 44.1452 26.6356 43.7523C26.316 43.3595 21.8002 36.8583 16.6006 29.3054C9.45967 18.9326 6.94913 15.431 6.33936 14.9933C5.23524 14.2007 3.45189 14.0762 2.19771 14.7043ZM66.1396 14.5943C65.2153 15.0831 64.2822 16.0617 64.004 16.8339C63.8075 17.3786 63.7514 21.18 63.7514 33.9156V50.2966L64.2489 51.1708C66.0715 54.3727 70.8922 53.8138 71.7907 50.2964C72.0602 49.2414 72.0924 18.512 71.8253 17.3775C71.5975 16.4097 70.9274 15.4592 70.0601 14.8734C69.1628 14.2672 67.0429 14.1164 66.1396 14.5943ZM79.0754 14.5739C78.2869 14.9184 77.5055 15.6581 77.0649 16.4778C76.5881 17.3645 76.5933 19.0866 77.0753 19.9869C77.2777 20.3645 81.6613 26.809 86.8167 34.308C94.8739 46.0276 96.428 48.1781 97.882 49.6196C99.7766 51.4982 101.545 52.5411 103.674 53.0359C108.36 54.1247 112.765 52.3501 115.948 48.0906C117.987 45.3621 134.966 20.6421 135.318 19.8888C136.548 17.2609 134.639 14.2976 131.716 14.2976C130.457 14.2976 129.605 14.6492 128.801 15.5004C128.458 15.8639 123.908 22.3583 118.69 29.9322C113.472 37.5063 108.897 43.9689 108.521 44.2935C106.859 45.7327 105.2 45.5558 103.495 43.7572C102.915 43.1459 98.3155 36.6425 93.2737 29.3054C88.2319 21.9683 83.9151 15.758 83.6807 15.5047C82.6474 14.3881 80.4959 13.9531 79.0754 14.5739ZM178.354 21.4749C181.612 22.3037 184.573 24.6979 186.012 27.6681C186.448 28.5685 186.902 29.7733 187.022 30.345C187.344 31.8881 187.291 35.3234 186.925 36.732C185.778 41.135 182.26 44.4538 177.739 45.3984C175.748 45.8141 154.731 45.8092 152.71 45.3923C148.647 44.5543 145.279 41.653 143.812 37.7278C143.211 36.1181 143.067 31.8506 143.551 30.0077C144.613 25.967 147.853 22.683 151.914 21.5308C152.983 21.2273 154.361 21.1904 165.12 21.1779C175.468 21.1659 177.3 21.2069 178.354 21.4749Z" fill="white"/>
</svg>
