<svg width="171" height="61" viewBox="0 0 171 61" fill="none" xmlns="http://www.w3.org/2000/svg">
<path fill-rule="evenodd" clip-rule="evenodd" d="M67.9468 3.61518C67.4924 5.60347 67.0715 7.42222 67.0113 7.65666L66.9018 8.08297L58.2112 8.11212L49.5206 8.14126L44.2695 18.4713C41.3815 24.1529 38.9831 28.8369 38.9397 28.8804C38.8964 28.9238 38.8603 28.6306 38.8596 28.2288C38.8589 27.8268 38.7318 23.4503 38.5773 18.5029C38.4228 13.5555 38.2957 9.18745 38.2948 8.79598L38.2932 8.08433L32.7004 8.08559L27.1076 8.08684L21.8271 18.4889L16.5465 28.8908L16.464 28.1376C16.4187 27.7232 16.278 23.6182 16.1516 19.0153C16.0251 14.4123 15.8899 10.0699 15.8513 9.3653L15.7812 8.08433H7.89058H0L0.0717697 8.96678C0.111175 9.45218 0.676929 18.3805 1.32887 28.8076C1.98082 39.2346 2.54589 48.1373 2.58462 48.5914L2.65491 49.4169H10.4717H18.2884L19.9301 46.2003C20.833 44.431 22.3546 41.4464 23.3115 39.5677C24.2685 37.6889 25.5982 35.0818 26.2663 33.774L27.4811 31.396L27.5489 32.5784C27.5861 33.2287 27.6931 36.5019 27.7868 39.8523C27.8804 43.2028 27.9893 46.7255 28.0287 47.6805L28.1003 49.4169H35.9141H43.7279L45.2172 46.4849C46.0363 44.8723 49.3999 38.2628 52.6918 31.797L58.6772 20.0412L61.4186 20.0406L64.1602 20.04L63.9389 21.0363C63.8172 21.5844 62.9061 25.5169 61.9144 29.7754C60.9226 34.0339 60.0491 37.928 59.9734 38.4291C59.7436 39.95 59.7864 41.8036 60.0787 42.9836C60.8096 45.9352 62.4875 47.7544 65.3846 48.7362C67.3554 49.4042 67.538 49.4169 75.1274 49.4165C81.8551 49.4161 82.0819 49.4091 82.4405 49.1898C83.2329 48.7054 83.5568 47.6385 83.1747 46.7722C82.9001 46.1498 82.4795 45.8775 81.2956 45.5556C80.1063 45.2321 79.5867 44.9497 78.8972 44.2522C77.4993 42.8376 76.8625 40.206 77.1271 36.9379C77.2658 35.224 77.3011 35.0509 79.2089 26.7011L80.7178 20.097L84.5472 20.067L88.3764 20.037L87.7658 21.2626C86.0932 24.6199 85.3364 28.0843 85.4585 31.8249C85.6216 36.8167 87.4002 41.1002 90.7475 44.5618C92.4346 46.3064 94.0798 47.4811 96.3359 48.5518C104.031 52.2035 113.764 50.6867 121.144 44.6858C123.52 42.7537 125.644 40.2262 127.359 37.2904C127.725 36.6642 127.996 36.2543 127.961 36.3795C127.926 36.5048 126.668 41.9617 125.164 48.506C123.661 55.0503 122.402 60.5205 122.367 60.6618L122.302 60.9188L130.12 60.8895L137.937 60.8602L139.248 55.167L140.558 49.4738L146.915 49.4058C152.273 49.3484 153.394 49.3081 154.047 49.1496C157.29 48.3624 160.456 46.5761 162.868 44.173C165.169 41.8803 167.362 38.5967 168.718 35.4117C171.594 28.6568 171.758 21.6898 169.174 16.0126C167.524 12.3862 164.417 9.91082 160.157 8.82809C157.417 8.1317 157.905 8.15584 145.699 8.11314L134.492 8.07397L134.391 8.44927C134.335 8.65559 133.425 12.5887 132.368 17.1893C130.279 26.2827 130.425 25.8589 130.174 23.5585C130.018 22.1301 129.5 20.1475 128.918 18.7509C126.314 12.4993 120.819 8.33518 113.697 7.21635C112.063 6.95981 108.725 6.96357 107.054 7.22409C100.782 8.20093 95.0612 11.4106 91.0153 16.2233L90.5386 16.7902L90.6989 16.1095C90.7871 15.735 91.2451 13.7985 91.717 11.8063C92.1887 9.81404 92.5747 8.16153 92.5747 8.13421C92.5747 8.10676 90.5562 8.08433 88.0891 8.08433C83.892 8.08433 83.6036 8.07147 83.6053 7.88507C83.6063 7.77542 84.0067 5.95656 84.4952 3.8429L85.3831 0H77.078H68.7729L67.9468 3.61518ZM111.224 19.2756C112.19 19.8434 112.922 21.0176 113.366 22.7158C113.675 23.8934 113.783 26.5197 113.588 28.0752C112.955 33.1142 110.463 37.7873 107.716 39.0829C107.05 39.3967 106.819 39.4479 106.088 39.4421C104.58 39.4303 103.598 38.7455 102.856 37.1866C102.347 36.1186 102.142 35.2898 101.986 33.6752C101.499 28.6239 103.914 21.9714 107.035 19.7718C108.114 19.0115 108.481 18.8947 109.671 18.9334C110.548 18.962 110.776 19.0121 111.224 19.2756ZM152.313 19.2003C152.597 19.331 153.009 19.5955 153.227 19.7881C155.262 21.579 155.13 27.9547 152.947 33.3691C151.161 37.7971 148.711 39.5069 144.146 39.5098C142.973 39.5106 142.86 39.4925 142.904 39.3115C142.931 39.202 143.997 34.5603 145.274 28.9968L147.594 18.8815L149.695 18.9221C151.53 18.9576 151.861 18.9928 152.313 19.2003Z" fill="white"/>
</svg>
